<mxfile host="app.diagrams.net" modified="2023-11-30T07:06:21.924Z" agent="Mozilla/5.0 (Windows NT 10.0; Win64; x64) AppleWebKit/537.36 (KHTML, like Gecko) Chrome/119.0.0.0 Safari/537.36" etag="HlPJyxBbUOw-r1V6epim" version="22.1.5" type="device">
  <diagram name="Страница — 1" id="teJkvmPZ3Bd7L0u2duRO">
    <mxGraphModel dx="1877" dy="1711" grid="1" gridSize="10" guides="1" tooltips="1" connect="1" arrows="1" fold="1" page="1" pageScale="1" pageWidth="827" pageHeight="1169" math="0" shadow="0">
      <root>
        <mxCell id="0" />
        <mxCell id="1" parent="0" />
        <mxCell id="WKKYM1dE-AURRye9Vkcp-5" value="Клиент" style="swimlane;fontStyle=0;childLayout=stackLayout;horizontal=1;startSize=26;fillColor=none;horizontalStack=0;resizeParent=1;resizeParentMax=0;resizeLast=0;collapsible=1;marginBottom=0;whiteSpace=wrap;html=1;" parent="1" vertex="1">
          <mxGeometry x="420" y="90" width="140" height="208" as="geometry" />
        </mxCell>
        <mxCell id="WKKYM1dE-AURRye9Vkcp-6" value="id" style="text;strokeColor=none;fillColor=none;align=left;verticalAlign=top;spacingLeft=4;spacingRight=4;overflow=hidden;rotatable=0;points=[[0,0.5],[1,0.5]];portConstraint=eastwest;whiteSpace=wrap;html=1;" parent="WKKYM1dE-AURRye9Vkcp-5" vertex="1">
          <mxGeometry y="26" width="140" height="26" as="geometry" />
        </mxCell>
        <mxCell id="WKKYM1dE-AURRye9Vkcp-54" value="Фамилия" style="text;strokeColor=none;fillColor=none;align=left;verticalAlign=top;spacingLeft=4;spacingRight=4;overflow=hidden;rotatable=0;points=[[0,0.5],[1,0.5]];portConstraint=eastwest;whiteSpace=wrap;html=1;" parent="WKKYM1dE-AURRye9Vkcp-5" vertex="1">
          <mxGeometry y="52" width="140" height="26" as="geometry" />
        </mxCell>
        <mxCell id="WKKYM1dE-AURRye9Vkcp-7" value="Имя" style="text;strokeColor=none;fillColor=none;align=left;verticalAlign=top;spacingLeft=4;spacingRight=4;overflow=hidden;rotatable=0;points=[[0,0.5],[1,0.5]];portConstraint=eastwest;whiteSpace=wrap;html=1;" parent="WKKYM1dE-AURRye9Vkcp-5" vertex="1">
          <mxGeometry y="78" width="140" height="26" as="geometry" />
        </mxCell>
        <mxCell id="WKKYM1dE-AURRye9Vkcp-31" value="Отчество" style="text;strokeColor=none;fillColor=none;align=left;verticalAlign=top;spacingLeft=4;spacingRight=4;overflow=hidden;rotatable=0;points=[[0,0.5],[1,0.5]];portConstraint=eastwest;whiteSpace=wrap;html=1;" parent="WKKYM1dE-AURRye9Vkcp-5" vertex="1">
          <mxGeometry y="104" width="140" height="26" as="geometry" />
        </mxCell>
        <mxCell id="WKKYM1dE-AURRye9Vkcp-8" value="Номер телефона" style="text;strokeColor=none;fillColor=none;align=left;verticalAlign=top;spacingLeft=4;spacingRight=4;overflow=hidden;rotatable=0;points=[[0,0.5],[1,0.5]];portConstraint=eastwest;whiteSpace=wrap;html=1;" parent="WKKYM1dE-AURRye9Vkcp-5" vertex="1">
          <mxGeometry y="130" width="140" height="26" as="geometry" />
        </mxCell>
        <mxCell id="WKKYM1dE-AURRye9Vkcp-32" value="Номер паспорта" style="text;strokeColor=none;fillColor=none;align=left;verticalAlign=top;spacingLeft=4;spacingRight=4;overflow=hidden;rotatable=0;points=[[0,0.5],[1,0.5]];portConstraint=eastwest;whiteSpace=wrap;html=1;" parent="WKKYM1dE-AURRye9Vkcp-5" vertex="1">
          <mxGeometry y="156" width="140" height="26" as="geometry" />
        </mxCell>
        <mxCell id="WKKYM1dE-AURRye9Vkcp-33" value="Наличие займа" style="text;strokeColor=none;fillColor=none;align=left;verticalAlign=top;spacingLeft=4;spacingRight=4;overflow=hidden;rotatable=0;points=[[0,0.5],[1,0.5]];portConstraint=eastwest;whiteSpace=wrap;html=1;" parent="WKKYM1dE-AURRye9Vkcp-5" vertex="1">
          <mxGeometry y="182" width="140" height="26" as="geometry" />
        </mxCell>
        <mxCell id="WKKYM1dE-AURRye9Vkcp-14" value="Займ" style="swimlane;fontStyle=0;childLayout=stackLayout;horizontal=1;startSize=26;fillColor=none;horizontalStack=0;resizeParent=1;resizeParentMax=0;resizeLast=0;collapsible=1;marginBottom=0;whiteSpace=wrap;html=1;" parent="1" vertex="1">
          <mxGeometry x="430" y="370" width="140" height="208" as="geometry" />
        </mxCell>
        <mxCell id="WKKYM1dE-AURRye9Vkcp-15" value="id" style="text;strokeColor=none;fillColor=none;align=left;verticalAlign=top;spacingLeft=4;spacingRight=4;overflow=hidden;rotatable=0;points=[[0,0.5],[1,0.5]];portConstraint=eastwest;whiteSpace=wrap;html=1;" parent="WKKYM1dE-AURRye9Vkcp-14" vertex="1">
          <mxGeometry y="26" width="140" height="26" as="geometry" />
        </mxCell>
        <mxCell id="WKKYM1dE-AURRye9Vkcp-56" value="Имя клиента" style="text;strokeColor=none;fillColor=none;align=left;verticalAlign=top;spacingLeft=4;spacingRight=4;overflow=hidden;rotatable=0;points=[[0,0.5],[1,0.5]];portConstraint=eastwest;whiteSpace=wrap;html=1;" parent="WKKYM1dE-AURRye9Vkcp-14" vertex="1">
          <mxGeometry y="52" width="140" height="26" as="geometry" />
        </mxCell>
        <mxCell id="WKKYM1dE-AURRye9Vkcp-16" value="Сумма" style="text;strokeColor=none;fillColor=none;align=left;verticalAlign=top;spacingLeft=4;spacingRight=4;overflow=hidden;rotatable=0;points=[[0,0.5],[1,0.5]];portConstraint=eastwest;whiteSpace=wrap;html=1;" parent="WKKYM1dE-AURRye9Vkcp-14" vertex="1">
          <mxGeometry y="78" width="140" height="26" as="geometry" />
        </mxCell>
        <mxCell id="WKKYM1dE-AURRye9Vkcp-17" value="Процент" style="text;strokeColor=none;fillColor=none;align=left;verticalAlign=top;spacingLeft=4;spacingRight=4;overflow=hidden;rotatable=0;points=[[0,0.5],[1,0.5]];portConstraint=eastwest;whiteSpace=wrap;html=1;" parent="WKKYM1dE-AURRye9Vkcp-14" vertex="1">
          <mxGeometry y="104" width="140" height="26" as="geometry" />
        </mxCell>
        <mxCell id="WKKYM1dE-AURRye9Vkcp-29" value="Остаток" style="text;strokeColor=none;fillColor=none;align=left;verticalAlign=top;spacingLeft=4;spacingRight=4;overflow=hidden;rotatable=0;points=[[0,0.5],[1,0.5]];portConstraint=eastwest;whiteSpace=wrap;html=1;" parent="WKKYM1dE-AURRye9Vkcp-14" vertex="1">
          <mxGeometry y="130" width="140" height="26" as="geometry" />
        </mxCell>
        <mxCell id="WKKYM1dE-AURRye9Vkcp-30" value="Дата взятия" style="text;strokeColor=none;fillColor=none;align=left;verticalAlign=top;spacingLeft=4;spacingRight=4;overflow=hidden;rotatable=0;points=[[0,0.5],[1,0.5]];portConstraint=eastwest;whiteSpace=wrap;html=1;" parent="WKKYM1dE-AURRye9Vkcp-14" vertex="1">
          <mxGeometry y="156" width="140" height="26" as="geometry" />
        </mxCell>
        <mxCell id="WKKYM1dE-AURRye9Vkcp-34" value="Срок" style="text;strokeColor=none;fillColor=none;align=left;verticalAlign=top;spacingLeft=4;spacingRight=4;overflow=hidden;rotatable=0;points=[[0,0.5],[1,0.5]];portConstraint=eastwest;whiteSpace=wrap;html=1;" parent="WKKYM1dE-AURRye9Vkcp-14" vertex="1">
          <mxGeometry y="182" width="140" height="26" as="geometry" />
        </mxCell>
        <mxCell id="WKKYM1dE-AURRye9Vkcp-37" value="" style="endArrow=none;html=1;edgeStyle=orthogonalEdgeStyle;rounded=0;exitX=0.523;exitY=1.169;exitDx=0;exitDy=0;exitPerimeter=0;entryX=0.5;entryY=0;entryDx=0;entryDy=0;" parent="1" source="WKKYM1dE-AURRye9Vkcp-33" target="WKKYM1dE-AURRye9Vkcp-14" edge="1">
          <mxGeometry relative="1" as="geometry">
            <mxPoint x="600" y="300" as="sourcePoint" />
            <mxPoint x="760" y="300" as="targetPoint" />
            <Array as="points">
              <mxPoint x="493" y="370" />
            </Array>
          </mxGeometry>
        </mxCell>
        <mxCell id="WKKYM1dE-AURRye9Vkcp-38" value="1" style="edgeLabel;resizable=0;html=1;align=left;verticalAlign=bottom;" parent="WKKYM1dE-AURRye9Vkcp-37" connectable="0" vertex="1">
          <mxGeometry x="-1" relative="1" as="geometry">
            <mxPoint x="7" y="18" as="offset" />
          </mxGeometry>
        </mxCell>
        <mxCell id="WKKYM1dE-AURRye9Vkcp-39" value="*" style="edgeLabel;resizable=0;html=1;align=right;verticalAlign=bottom;" parent="WKKYM1dE-AURRye9Vkcp-37" connectable="0" vertex="1">
          <mxGeometry x="1" relative="1" as="geometry">
            <mxPoint x="10" as="offset" />
          </mxGeometry>
        </mxCell>
        <mxCell id="WKKYM1dE-AURRye9Vkcp-40" value="Сотрудник" style="swimlane;fontStyle=0;childLayout=stackLayout;horizontal=1;startSize=26;fillColor=none;horizontalStack=0;resizeParent=1;resizeParentMax=0;resizeLast=0;collapsible=1;marginBottom=0;whiteSpace=wrap;html=1;" parent="1" vertex="1">
          <mxGeometry x="670" y="116" width="140" height="156" as="geometry" />
        </mxCell>
        <mxCell id="WKKYM1dE-AURRye9Vkcp-41" value="id" style="text;strokeColor=none;fillColor=none;align=left;verticalAlign=top;spacingLeft=4;spacingRight=4;overflow=hidden;rotatable=0;points=[[0,0.5],[1,0.5]];portConstraint=eastwest;whiteSpace=wrap;html=1;" parent="WKKYM1dE-AURRye9Vkcp-40" vertex="1">
          <mxGeometry y="26" width="140" height="26" as="geometry" />
        </mxCell>
        <mxCell id="WKKYM1dE-AURRye9Vkcp-55" value="Фамилия" style="text;strokeColor=none;fillColor=none;align=left;verticalAlign=top;spacingLeft=4;spacingRight=4;overflow=hidden;rotatable=0;points=[[0,0.5],[1,0.5]];portConstraint=eastwest;whiteSpace=wrap;html=1;" parent="WKKYM1dE-AURRye9Vkcp-40" vertex="1">
          <mxGeometry y="52" width="140" height="26" as="geometry" />
        </mxCell>
        <mxCell id="WKKYM1dE-AURRye9Vkcp-42" value="Имя" style="text;strokeColor=none;fillColor=none;align=left;verticalAlign=top;spacingLeft=4;spacingRight=4;overflow=hidden;rotatable=0;points=[[0,0.5],[1,0.5]];portConstraint=eastwest;whiteSpace=wrap;html=1;" parent="WKKYM1dE-AURRye9Vkcp-40" vertex="1">
          <mxGeometry y="78" width="140" height="26" as="geometry" />
        </mxCell>
        <mxCell id="WKKYM1dE-AURRye9Vkcp-43" value="Отчество" style="text;strokeColor=none;fillColor=none;align=left;verticalAlign=top;spacingLeft=4;spacingRight=4;overflow=hidden;rotatable=0;points=[[0,0.5],[1,0.5]];portConstraint=eastwest;whiteSpace=wrap;html=1;" parent="WKKYM1dE-AURRye9Vkcp-40" vertex="1">
          <mxGeometry y="104" width="140" height="26" as="geometry" />
        </mxCell>
        <mxCell id="WKKYM1dE-AURRye9Vkcp-44" value="Курируемый клиент" style="text;strokeColor=none;fillColor=none;align=left;verticalAlign=top;spacingLeft=4;spacingRight=4;overflow=hidden;rotatable=0;points=[[0,0.5],[1,0.5]];portConstraint=eastwest;whiteSpace=wrap;html=1;" parent="WKKYM1dE-AURRye9Vkcp-40" vertex="1">
          <mxGeometry y="130" width="140" height="26" as="geometry" />
        </mxCell>
        <mxCell id="WKKYM1dE-AURRye9Vkcp-47" value="" style="endArrow=none;html=1;edgeStyle=orthogonalEdgeStyle;rounded=0;exitX=1;exitY=0.5;exitDx=0;exitDy=0;entryX=0;entryY=0.5;entryDx=0;entryDy=0;" parent="1" source="WKKYM1dE-AURRye9Vkcp-31" target="WKKYM1dE-AURRye9Vkcp-42" edge="1">
          <mxGeometry relative="1" as="geometry">
            <mxPoint x="600" y="340" as="sourcePoint" />
            <mxPoint x="760" y="340" as="targetPoint" />
          </mxGeometry>
        </mxCell>
        <mxCell id="WKKYM1dE-AURRye9Vkcp-48" value="1" style="edgeLabel;resizable=0;html=1;align=left;verticalAlign=bottom;" parent="WKKYM1dE-AURRye9Vkcp-47" connectable="0" vertex="1">
          <mxGeometry x="-1" relative="1" as="geometry">
            <mxPoint x="10" as="offset" />
          </mxGeometry>
        </mxCell>
        <mxCell id="WKKYM1dE-AURRye9Vkcp-49" value="1" style="edgeLabel;resizable=0;html=1;align=right;verticalAlign=bottom;" parent="WKKYM1dE-AURRye9Vkcp-47" connectable="0" vertex="1">
          <mxGeometry x="1" relative="1" as="geometry">
            <mxPoint x="-10" as="offset" />
          </mxGeometry>
        </mxCell>
        <mxCell id="WKKYM1dE-AURRye9Vkcp-50" value="Запись в филиал" style="swimlane;fontStyle=0;childLayout=stackLayout;horizontal=1;startSize=26;fillColor=none;horizontalStack=0;resizeParent=1;resizeParentMax=0;resizeLast=0;collapsible=1;marginBottom=0;whiteSpace=wrap;html=1;" parent="1" vertex="1">
          <mxGeometry x="160" y="116" width="140" height="156" as="geometry" />
        </mxCell>
        <mxCell id="WKKYM1dE-AURRye9Vkcp-51" value="id" style="text;strokeColor=none;fillColor=none;align=left;verticalAlign=top;spacingLeft=4;spacingRight=4;overflow=hidden;rotatable=0;points=[[0,0.5],[1,0.5]];portConstraint=eastwest;whiteSpace=wrap;html=1;" parent="WKKYM1dE-AURRye9Vkcp-50" vertex="1">
          <mxGeometry y="26" width="140" height="26" as="geometry" />
        </mxCell>
        <mxCell id="WKKYM1dE-AURRye9Vkcp-57" value="Адрес" style="text;strokeColor=none;fillColor=none;align=left;verticalAlign=top;spacingLeft=4;spacingRight=4;overflow=hidden;rotatable=0;points=[[0,0.5],[1,0.5]];portConstraint=eastwest;whiteSpace=wrap;html=1;" parent="WKKYM1dE-AURRye9Vkcp-50" vertex="1">
          <mxGeometry y="52" width="140" height="26" as="geometry" />
        </mxCell>
        <mxCell id="WKKYM1dE-AURRye9Vkcp-52" value="Дата" style="text;strokeColor=none;fillColor=none;align=left;verticalAlign=top;spacingLeft=4;spacingRight=4;overflow=hidden;rotatable=0;points=[[0,0.5],[1,0.5]];portConstraint=eastwest;whiteSpace=wrap;html=1;" parent="WKKYM1dE-AURRye9Vkcp-50" vertex="1">
          <mxGeometry y="78" width="140" height="26" as="geometry" />
        </mxCell>
        <mxCell id="WKKYM1dE-AURRye9Vkcp-53" value="Время" style="text;strokeColor=none;fillColor=none;align=left;verticalAlign=top;spacingLeft=4;spacingRight=4;overflow=hidden;rotatable=0;points=[[0,0.5],[1,0.5]];portConstraint=eastwest;whiteSpace=wrap;html=1;" parent="WKKYM1dE-AURRye9Vkcp-50" vertex="1">
          <mxGeometry y="104" width="140" height="26" as="geometry" />
        </mxCell>
        <mxCell id="WKKYM1dE-AURRye9Vkcp-58" value="Имя клиента" style="text;strokeColor=none;fillColor=none;align=left;verticalAlign=top;spacingLeft=4;spacingRight=4;overflow=hidden;rotatable=0;points=[[0,0.5],[1,0.5]];portConstraint=eastwest;whiteSpace=wrap;html=1;" parent="WKKYM1dE-AURRye9Vkcp-50" vertex="1">
          <mxGeometry y="130" width="140" height="26" as="geometry" />
        </mxCell>
        <mxCell id="WKKYM1dE-AURRye9Vkcp-59" value="" style="endArrow=none;html=1;edgeStyle=orthogonalEdgeStyle;rounded=0;entryX=0;entryY=0.5;entryDx=0;entryDy=0;" parent="1" target="WKKYM1dE-AURRye9Vkcp-7" edge="1">
          <mxGeometry relative="1" as="geometry">
            <mxPoint x="300" y="180" as="sourcePoint" />
            <mxPoint x="410" y="180" as="targetPoint" />
            <Array as="points">
              <mxPoint x="300" y="210" />
              <mxPoint x="420" y="210" />
            </Array>
          </mxGeometry>
        </mxCell>
        <mxCell id="WKKYM1dE-AURRye9Vkcp-60" value="*" style="edgeLabel;resizable=0;html=1;align=left;verticalAlign=bottom;" parent="WKKYM1dE-AURRye9Vkcp-59" connectable="0" vertex="1">
          <mxGeometry x="-1" relative="1" as="geometry">
            <mxPoint x="10" y="20" as="offset" />
          </mxGeometry>
        </mxCell>
        <mxCell id="WKKYM1dE-AURRye9Vkcp-61" value="1" style="edgeLabel;resizable=0;html=1;align=right;verticalAlign=bottom;" parent="WKKYM1dE-AURRye9Vkcp-59" connectable="0" vertex="1">
          <mxGeometry x="1" relative="1" as="geometry">
            <mxPoint x="-6" y="19" as="offset" />
          </mxGeometry>
        </mxCell>
        <mxCell id="YFtCUIjn4K9IxIn_kLI1-1" value="Клиент вводит свой номер" style="rounded=1;whiteSpace=wrap;html=1;" parent="1" vertex="1">
          <mxGeometry x="-477" y="-990" width="120" height="60" as="geometry" />
        </mxCell>
        <mxCell id="YFtCUIjn4K9IxIn_kLI1-2" value="" style="ellipse;whiteSpace=wrap;html=1;aspect=fixed;fillStyle=solid;fillColor=#B85450;strokeColor=#B85450;" parent="1" vertex="1">
          <mxGeometry x="-430" y="-1100" width="26" height="26" as="geometry" />
        </mxCell>
        <mxCell id="YFtCUIjn4K9IxIn_kLI1-3" value="Клиент зашел в бота" style="shape=note;whiteSpace=wrap;html=1;backgroundOutline=1;darkOpacity=0.05;" parent="1" vertex="1">
          <mxGeometry x="-790" y="-1138.5" width="130" height="83" as="geometry" />
        </mxCell>
        <mxCell id="YFtCUIjn4K9IxIn_kLI1-4" value="" style="endArrow=none;dashed=1;html=1;rounded=0;exitX=1.006;exitY=0.572;exitDx=0;exitDy=0;exitPerimeter=0;entryX=0;entryY=0.5;entryDx=0;entryDy=0;" parent="1" source="YFtCUIjn4K9IxIn_kLI1-3" target="YFtCUIjn4K9IxIn_kLI1-2" edge="1">
          <mxGeometry width="50" height="50" relative="1" as="geometry">
            <mxPoint x="390" y="-930" as="sourcePoint" />
            <mxPoint x="440" y="-980" as="targetPoint" />
          </mxGeometry>
        </mxCell>
        <mxCell id="YFtCUIjn4K9IxIn_kLI1-9" value="" style="endArrow=classic;html=1;rounded=0;exitX=0.5;exitY=1;exitDx=0;exitDy=0;entryX=0.5;entryY=0;entryDx=0;entryDy=0;" parent="1" source="YFtCUIjn4K9IxIn_kLI1-2" target="YFtCUIjn4K9IxIn_kLI1-1" edge="1">
          <mxGeometry width="50" height="50" relative="1" as="geometry">
            <mxPoint x="-320" y="-1070" as="sourcePoint" />
            <mxPoint x="-270" y="-1120" as="targetPoint" />
          </mxGeometry>
        </mxCell>
        <mxCell id="YFtCUIjn4K9IxIn_kLI1-10" value="Номер уже есть в базе данных?" style="rhombus;whiteSpace=wrap;html=1;" parent="1" vertex="1">
          <mxGeometry x="-493.5" y="-890" width="153" height="100" as="geometry" />
        </mxCell>
        <mxCell id="YFtCUIjn4K9IxIn_kLI1-11" value="" style="endArrow=classic;html=1;rounded=0;exitX=0.5;exitY=1;exitDx=0;exitDy=0;entryX=0.5;entryY=0;entryDx=0;entryDy=0;" parent="1" source="YFtCUIjn4K9IxIn_kLI1-1" target="YFtCUIjn4K9IxIn_kLI1-10" edge="1">
          <mxGeometry width="50" height="50" relative="1" as="geometry">
            <mxPoint x="-390" y="-600" as="sourcePoint" />
            <mxPoint x="-340" y="-650" as="targetPoint" />
          </mxGeometry>
        </mxCell>
        <mxCell id="YFtCUIjn4K9IxIn_kLI1-12" value="" style="endArrow=classic;html=1;rounded=0;exitX=0.5;exitY=1;exitDx=0;exitDy=0;entryX=0.5;entryY=0;entryDx=0;entryDy=0;" parent="1" source="YFtCUIjn4K9IxIn_kLI1-10" target="YFtCUIjn4K9IxIn_kLI1-15" edge="1">
          <mxGeometry width="50" height="50" relative="1" as="geometry">
            <mxPoint x="-390" y="-600" as="sourcePoint" />
            <mxPoint x="-417" y="-640" as="targetPoint" />
          </mxGeometry>
        </mxCell>
        <mxCell id="YFtCUIjn4K9IxIn_kLI1-13" value="" style="endArrow=classic;html=1;rounded=0;exitX=1;exitY=0.5;exitDx=0;exitDy=0;entryX=0.5;entryY=0;entryDx=0;entryDy=0;" parent="1" source="YFtCUIjn4K9IxIn_kLI1-10" target="YFtCUIjn4K9IxIn_kLI1-14" edge="1">
          <mxGeometry width="50" height="50" relative="1" as="geometry">
            <mxPoint x="-270" y="-830" as="sourcePoint" />
            <mxPoint x="-210" y="-760" as="targetPoint" />
          </mxGeometry>
        </mxCell>
        <mxCell id="YFtCUIjn4K9IxIn_kLI1-14" value="Просьба ввести свое ФИО" style="rounded=1;whiteSpace=wrap;html=1;" parent="1" vertex="1">
          <mxGeometry x="-270" y="-750" width="120" height="60" as="geometry" />
        </mxCell>
        <mxCell id="YFtCUIjn4K9IxIn_kLI1-15" value="Бот выводит 3 кнопки функций" style="rounded=1;whiteSpace=wrap;html=1;" parent="1" vertex="1">
          <mxGeometry x="-477" y="-614" width="120" height="60" as="geometry" />
        </mxCell>
        <mxCell id="YFtCUIjn4K9IxIn_kLI1-17" value="" style="endArrow=classic;html=1;rounded=0;exitX=0.5;exitY=1;exitDx=0;exitDy=0;entryX=1;entryY=0.5;entryDx=0;entryDy=0;" parent="1" source="YFtCUIjn4K9IxIn_kLI1-14" target="YFtCUIjn4K9IxIn_kLI1-15" edge="1">
          <mxGeometry width="50" height="50" relative="1" as="geometry">
            <mxPoint x="-390" y="-600" as="sourcePoint" />
            <mxPoint x="-340" y="-650" as="targetPoint" />
          </mxGeometry>
        </mxCell>
        <mxCell id="YFtCUIjn4K9IxIn_kLI1-18" value="Нет" style="text;html=1;strokeColor=none;fillColor=none;align=center;verticalAlign=middle;whiteSpace=wrap;rounded=0;" parent="1" vertex="1">
          <mxGeometry x="-300" y="-840" width="60" height="30" as="geometry" />
        </mxCell>
        <mxCell id="YFtCUIjn4K9IxIn_kLI1-19" value="Да" style="text;html=1;strokeColor=none;fillColor=none;align=center;verticalAlign=middle;whiteSpace=wrap;rounded=0;" parent="1" vertex="1">
          <mxGeometry x="-464" y="-735" width="60" height="30" as="geometry" />
        </mxCell>
        <mxCell id="YFtCUIjn4K9IxIn_kLI1-21" value="" style="line;strokeWidth=6;fillColor=none;align=left;verticalAlign=middle;spacingTop=-1;spacingLeft=3;spacingRight=3;rotatable=0;labelPosition=right;points=[];portConstraint=eastwest;strokeColor=inherit;" parent="1" vertex="1">
          <mxGeometry x="-520" y="-480" width="230" height="10" as="geometry" />
        </mxCell>
        <mxCell id="YFtCUIjn4K9IxIn_kLI1-22" value="" style="endArrow=classic;html=1;rounded=0;exitX=0.5;exitY=1;exitDx=0;exitDy=0;entryX=0.454;entryY=0.667;entryDx=0;entryDy=0;entryPerimeter=0;" parent="1" source="YFtCUIjn4K9IxIn_kLI1-15" target="YFtCUIjn4K9IxIn_kLI1-21" edge="1">
          <mxGeometry width="50" height="50" relative="1" as="geometry">
            <mxPoint x="-450" y="-600" as="sourcePoint" />
            <mxPoint x="-400" y="-650" as="targetPoint" />
          </mxGeometry>
        </mxCell>
        <mxCell id="YFtCUIjn4K9IxIn_kLI1-23" value="" style="endArrow=classic;html=1;rounded=0;exitX=0.123;exitY=0.8;exitDx=0;exitDy=0;exitPerimeter=0;entryX=0.5;entryY=0;entryDx=0;entryDy=0;" parent="1" source="YFtCUIjn4K9IxIn_kLI1-21" target="YFtCUIjn4K9IxIn_kLI1-31" edge="1">
          <mxGeometry width="50" height="50" relative="1" as="geometry">
            <mxPoint x="-450" y="-270" as="sourcePoint" />
            <mxPoint x="-600" y="-310" as="targetPoint" />
            <Array as="points">
              <mxPoint x="-492" y="-400" />
              <mxPoint x="-600" y="-400" />
            </Array>
          </mxGeometry>
        </mxCell>
        <mxCell id="YFtCUIjn4K9IxIn_kLI1-24" value="" style="endArrow=classic;html=1;rounded=0;exitX=0.529;exitY=0.4;exitDx=0;exitDy=0;exitPerimeter=0;" parent="1" source="YFtCUIjn4K9IxIn_kLI1-21" edge="1">
          <mxGeometry width="50" height="50" relative="1" as="geometry">
            <mxPoint x="-450" y="-270" as="sourcePoint" />
            <mxPoint x="-398" y="-260" as="targetPoint" />
          </mxGeometry>
        </mxCell>
        <mxCell id="YFtCUIjn4K9IxIn_kLI1-25" value="" style="endArrow=classic;html=1;rounded=0;exitX=0.871;exitY=0.667;exitDx=0;exitDy=0;exitPerimeter=0;" parent="1" source="YFtCUIjn4K9IxIn_kLI1-21" edge="1">
          <mxGeometry width="50" height="50" relative="1" as="geometry">
            <mxPoint x="-450" y="-270" as="sourcePoint" />
            <mxPoint x="-160" y="-320" as="targetPoint" />
            <Array as="points">
              <mxPoint x="-320" y="-400" />
              <mxPoint x="-160" y="-400" />
            </Array>
          </mxGeometry>
        </mxCell>
        <mxCell id="YFtCUIjn4K9IxIn_kLI1-27" value="Клиент выбрал &quot;Посмотреть историю выплат&quot;" style="text;html=1;strokeColor=none;fillColor=none;align=center;verticalAlign=middle;whiteSpace=wrap;rounded=0;" parent="1" vertex="1">
          <mxGeometry x="-620" y="-440" width="120" height="30" as="geometry" />
        </mxCell>
        <mxCell id="YFtCUIjn4K9IxIn_kLI1-28" value="Клиент выбрал &quot;Оплатить&quot;" style="text;html=1;strokeColor=none;fillColor=none;align=center;verticalAlign=middle;whiteSpace=wrap;rounded=0;" parent="1" vertex="1">
          <mxGeometry x="-460" y="-450" width="60" height="30" as="geometry" />
        </mxCell>
        <mxCell id="YFtCUIjn4K9IxIn_kLI1-29" value="Клиент выбрал &quot;Записаться в филиал&quot;" style="text;html=1;strokeColor=none;fillColor=none;align=center;verticalAlign=middle;whiteSpace=wrap;rounded=0;" parent="1" vertex="1">
          <mxGeometry x="-320" y="-450" width="140" height="30" as="geometry" />
        </mxCell>
        <mxCell id="YFtCUIjn4K9IxIn_kLI1-30" value="Бот выводит qr-код для оплаты" style="rounded=1;whiteSpace=wrap;html=1;" parent="1" vertex="1">
          <mxGeometry x="-450" y="-270" width="120" height="60" as="geometry" />
        </mxCell>
        <mxCell id="YFtCUIjn4K9IxIn_kLI1-31" value="Бот выводит pdf-файл с историей выплат" style="rounded=1;whiteSpace=wrap;html=1;" parent="1" vertex="1">
          <mxGeometry x="-660" y="-310" width="120" height="60" as="geometry" />
        </mxCell>
        <mxCell id="YFtCUIjn4K9IxIn_kLI1-32" value="Бот выводит доступные для записи даты" style="rounded=1;whiteSpace=wrap;html=1;" parent="1" vertex="1">
          <mxGeometry x="-220" y="-320" width="120" height="60" as="geometry" />
        </mxCell>
        <mxCell id="YFtCUIjn4K9IxIn_kLI1-33" value="" style="endArrow=classic;html=1;rounded=0;exitX=0.5;exitY=1;exitDx=0;exitDy=0;" parent="1" source="YFtCUIjn4K9IxIn_kLI1-32" edge="1">
          <mxGeometry width="50" height="50" relative="1" as="geometry">
            <mxPoint x="-160" y="-190" as="sourcePoint" />
            <mxPoint x="-160" y="-150" as="targetPoint" />
          </mxGeometry>
        </mxCell>
        <mxCell id="YFtCUIjn4K9IxIn_kLI1-34" value="Бот выводит доступные время в выбранную дату" style="rounded=1;whiteSpace=wrap;html=1;" parent="1" vertex="1">
          <mxGeometry x="-220" y="-150" width="120" height="60" as="geometry" />
        </mxCell>
        <mxCell id="YFtCUIjn4K9IxIn_kLI1-35" value="Клиент выбрал дату" style="text;html=1;strokeColor=none;fillColor=none;align=center;verticalAlign=middle;whiteSpace=wrap;rounded=0;" parent="1" vertex="1">
          <mxGeometry x="-160" y="-220" width="60" height="30" as="geometry" />
        </mxCell>
        <mxCell id="YFtCUIjn4K9IxIn_kLI1-36" value="" style="endArrow=classic;html=1;rounded=0;exitX=0.5;exitY=1;exitDx=0;exitDy=0;entryX=0;entryY=0.5;entryDx=0;entryDy=0;" parent="1" source="YFtCUIjn4K9IxIn_kLI1-31" target="YFtCUIjn4K9IxIn_kLI1-39" edge="1">
          <mxGeometry width="50" height="50" relative="1" as="geometry">
            <mxPoint x="-450" y="-280" as="sourcePoint" />
            <mxPoint x="-400" y="-10" as="targetPoint" />
          </mxGeometry>
        </mxCell>
        <mxCell id="YFtCUIjn4K9IxIn_kLI1-37" value="" style="endArrow=classic;html=1;rounded=0;exitX=0.5;exitY=1;exitDx=0;exitDy=0;entryX=0.5;entryY=0;entryDx=0;entryDy=0;" parent="1" source="YFtCUIjn4K9IxIn_kLI1-30" target="YFtCUIjn4K9IxIn_kLI1-39" edge="1">
          <mxGeometry width="50" height="50" relative="1" as="geometry">
            <mxPoint x="-450" y="-280" as="sourcePoint" />
            <mxPoint x="-390" y="-40" as="targetPoint" />
          </mxGeometry>
        </mxCell>
        <mxCell id="YFtCUIjn4K9IxIn_kLI1-38" value="" style="endArrow=classic;html=1;rounded=0;exitX=0.5;exitY=1;exitDx=0;exitDy=0;entryX=1;entryY=0.5;entryDx=0;entryDy=0;" parent="1" source="YFtCUIjn4K9IxIn_kLI1-34" target="YFtCUIjn4K9IxIn_kLI1-39" edge="1">
          <mxGeometry width="50" height="50" relative="1" as="geometry">
            <mxPoint x="-120" y="-10" as="sourcePoint" />
            <mxPoint x="-360" y="-20" as="targetPoint" />
          </mxGeometry>
        </mxCell>
        <mxCell id="YFtCUIjn4K9IxIn_kLI1-39" value="" style="ellipse;whiteSpace=wrap;html=1;aspect=fixed;fillStyle=solid;fillColor=#B85450;strokeColor=#B85450;" parent="1" vertex="1">
          <mxGeometry x="-400" y="-40" width="26" height="26" as="geometry" />
        </mxCell>
      </root>
    </mxGraphModel>
  </diagram>
</mxfile>
